<svg xmlns="http://www.w3.org/2000/svg" width="75" height="75" viewBox="0 0 75 75" fill="none">
    <path d="M67.1012 7.89848H15.7923C14.7455 7.89848 13.7416 7.48265 13.0014 6.74247C12.2613 6.0023 11.8454 4.9984 11.8454 3.95164C11.8454 2.90487 12.2613 1.90097 13.0014 1.1608C13.7416 0.420619 14.7455 0.00479126 15.7923 0.00479126H71.0481C72.0949 0.00479126 73.0988 0.420619 73.8389 1.1608C74.5791 1.90097 74.9949 2.90487 74.9949 3.95164V59.2075C74.9949 60.2542 74.5791 61.2581 73.8389 61.9983C73.0988 62.7385 72.0949 63.1543 71.0481 63.1543C70.0013 63.1543 68.9974 62.7385 68.2573 61.9983C67.5171 61.2581 67.1012 60.2542 67.1012 59.2075V7.89848Z" fill="#0F1110"/>
    <path d="M68.2538 1.15722C68.9949 0.416107 70.0001 -0.000244148 71.0482 -0.000244141C72.0963 -0.000244133 73.1014 0.416107 73.8425 1.15722C74.5836 1.89833 75 2.90349 75 3.95159C75 4.99968 74.5836 6.00484 73.8425 6.74595L6.74619 73.8423C6.00508 74.5834 4.99992 74.9998 3.95183 74.9998C2.90374 74.9998 1.89857 74.5834 1.15746 73.8423C0.416351 73.1012 0 72.096 0 71.0479C0 69.9998 0.416351 68.9947 1.15746 68.2536L68.2538 1.15722Z" fill="#0F1110"/>
    <svg xmlns="http://www.w3.org/2000/svg" width="150" height="150" viewBox="0 0 150 150" fill="none">
    <circle cx="75" cy="74.9997" r="75" fill="#FF5B58"/>
</svg>