<svg width="150" height="150" viewBox="0 0 150 150" fill="none" xmlns="http://www.w3.org/2000/svg">
<circle cx="75" cy="74.9997" r="75" fill="#FF5B58"/>
<path d="M104.101 44.8985H52.7921C51.7453 44.8985 50.7414 44.4827 50.0013 43.7425C49.2611 43.0023 48.8452 41.9984 48.8452 40.9517C48.8452 39.9049 49.2611 38.901 50.0013 38.1608C50.7414 37.4206 51.7453 37.0048 52.7921 37.0048H108.048C109.095 37.0048 110.099 37.4206 110.839 38.1608C111.579 38.901 111.995 39.9049 111.995 40.9517V96.2075C111.995 97.2542 111.579 98.2581 110.839 98.9983C110.099 99.7385 109.095 100.154 108.048 100.154C107.001 100.154 105.997 99.7385 105.257 98.9983C104.517 98.2581 104.101 97.2542 104.101 96.2075V44.8985Z" fill="#0F1110"/>
<path d="M105.254 38.1572C105.995 37.4161 107 36.9998 108.048 36.9998C109.096 36.9998 110.101 37.4161 110.842 38.1572C111.584 38.8983 112 39.9035 112 40.9516C112 41.9997 111.584 43.0048 110.842 43.746L43.7461 110.842C43.005 111.583 41.9998 112 40.9517 112C39.9036 112 38.8985 111.583 38.1573 110.842C37.4162 110.101 36.9999 109.096 36.9999 108.048C36.9999 107 37.4162 105.995 38.1573 105.254L105.254 38.1572Z" fill="#0F1110"/>
</svg>
