<svg width="194" height="50" viewBox="0 0 194 50" fill="none" xmlns="http://www.w3.org/2000/svg">
<g id="logo">
<g id="PAPRIKA">
<path d="M73 0.279267H80.9501C85.6395 0.279267 87.9997 3.90973 87.9997 7.5402C87.9997 11.1707 85.6395 14.7701 80.9501 14.7701H76.1676V22H73V0.279267ZM76.1676 11.6671H80.9501C83.5898 11.6671 84.8942 9.61918 84.8942 7.57123C84.8942 5.49224 83.5898 3.44429 80.9501 3.44429H76.1676V11.6671Z" fill="white"/>
<path d="M96.7854 4.99577L94.0525 12.6601H99.4561L96.7854 4.99577ZM103.276 22L100.667 15.6079H92.8724C92.0339 17.5938 90.947 20.2003 90.2638 22H86.8788L95.6053 0H97.9034L106.63 22H103.276Z" fill="white"/>
<path d="M108.149 0.279267H116.1C120.789 0.279267 123.149 3.90973 123.149 7.5402C123.149 11.1707 120.789 14.7701 116.1 14.7701H111.317V22H108.149V0.279267ZM111.317 11.6671H116.1C118.739 11.6671 120.044 9.61918 120.044 7.57123C120.044 5.49224 118.739 3.44429 116.1 3.44429H111.317V11.6671Z" fill="white"/>
<path d="M130.117 12.4739V10.9845H133.782C136.422 10.9845 137.726 9.09168 137.726 7.19887C137.726 5.3371 136.422 3.44429 133.782 3.44429H128.968V22H125.863V0.279267H133.782C138.502 0.279267 140.862 3.75458 140.862 7.19887C140.862 10.2708 138.968 13.1876 135.241 13.8392L142.105 22H138.036L130.117 12.4739Z" fill="white"/>
<path d="M147.884 0.310296V22L144.747 22V0.310296H147.884Z" fill="white"/>
<path d="M150.553 0.310296H153.658V22H150.553V0.310296ZM154.248 11.9464V10.3639L161.826 0.310296H165.77L157.478 11.0776L166.639 22H162.54L154.248 11.9464Z" fill="white"/>
<path d="M176.155 4.99577L173.423 12.6601H178.826L176.155 4.99577ZM182.646 22L180.037 15.6079H172.243C171.404 17.5938 170.317 20.2003 169.634 22H166.249L174.975 0H177.273L186 22H182.646Z" fill="white"/>
</g>
<g id="agency">
<path d="M83.9698 32.9608L81.2195 40.5714H86.6576L83.9698 32.9608ZM90.5018 49.8459L87.8765 43.4986H80.0319C79.1881 45.4706 78.0942 48.0588 77.4066 49.8459H74L82.7822 28H85.0949L93.8771 49.8459H90.5018Z" fill="white"/>
<path d="M115.916 36.0112H112.541C111.665 32.5294 108.29 31.2661 105.509 31.2661C101.227 31.2661 97.914 34.563 97.914 39.0924C97.914 43.6527 101.227 47.0112 105.509 47.0112C108.196 47.0112 111.072 45.7787 112.384 42.6359H104.29V39.5238H116.072C115.916 41.3417 115.76 42.5434 115.478 43.2521V43.2213C113.978 47.3501 109.478 50 105.509 50C99.3829 50 94.7574 45.4398 94.7574 39.0924C94.7574 32.7143 99.4766 28.1541 105.509 28.1541C109.696 28.1541 114.76 30.2801 115.916 36.0112Z" fill="white"/>
<path d="M122.124 40.6331V46.7339H132.282V49.8459H118.936V28.3081H132.25V31.4202H122.124V37.4902H132.032V40.6331H122.124Z" fill="white"/>
<path d="M138.089 49.8459H134.932V28.2465L137.37 28.2773L148.028 43.4678V28.2773H151.153V49.8459H148.653L138.089 34.7787V49.8459Z" fill="white"/>
<path d="M153.144 39.1232C153.144 36.0728 154.394 33.3613 156.269 31.3894C158.176 29.4482 160.863 28.1849 163.832 28.1849C168.833 28.1849 172.771 31.2661 174.021 36.1345H170.896C169.739 32.8992 167.052 31.2661 163.832 31.2661C161.738 31.2661 159.832 32.1597 158.457 33.577C157.082 34.9944 156.207 36.9048 156.207 39.1232C156.207 41.2801 157.082 43.1905 158.457 44.6078C159.832 46.0252 161.738 46.9188 163.832 46.9188C167.145 46.9188 169.958 45.0392 171.083 41.7731H174.177C172.927 46.6723 168.927 50 163.832 50C160.863 50 158.176 48.7675 156.269 46.7955C154.394 44.8235 153.144 42.112 153.144 39.1232Z" fill="white"/>
<path d="M174.592 28.3081H178.311L184.28 37.7675L190.25 28.3081H194L185.874 41.0644V49.8459H182.686V41.0644L174.592 28.3081Z" fill="white"/>
</g>
<g id="Vector">
<path d="M28.4801 0H56.7554L28.2752 27.5H0L28.4801 0Z" fill="#FF5B58"/>
<path d="M38.7248 22.5H67L38.5199 50H10.2446L38.7248 22.5Z" fill="#FF5B58"/>
</g>
</g>
</svg>
