<svg width="315" height="100" viewBox="0 0 315 100" fill="none" xmlns="http://www.w3.org/2000/svg">
<path d="M135.283 0.424817H147.23C154.276 0.424817 157.823 5.94744 157.823 11.4701C157.823 16.9927 154.276 22.4681 147.23 22.4681H140.043V33.4661H135.283V0.424817ZM140.043 17.7479H147.23C151.196 17.7479 153.156 14.6326 153.156 11.5173C153.156 8.35473 151.196 5.23941 147.23 5.23941H140.043V17.7479Z" fill="white"/>
<path d="M171.024 7.5995L166.918 19.2584H175.038L171.024 7.5995ZM180.777 33.4661L176.857 23.7425H165.145C163.885 26.7635 162.251 30.7284 161.225 33.4661H156.138L169.251 0H172.704L185.817 33.4661H180.777Z" fill="white"/>
<path d="M188.1 0.424817H200.047C207.093 0.424817 210.64 5.94744 210.64 11.4701C210.64 16.9927 207.093 22.4681 200.047 22.4681H192.86V33.4661H188.1V0.424817ZM192.86 17.7479H200.047C204.013 17.7479 205.973 14.6326 205.973 11.5173C205.973 8.35473 204.013 5.23941 200.047 5.23941H192.86V17.7479Z" fill="white"/>
<path d="M221.11 18.9752V16.7095H226.617C230.583 16.7095 232.543 13.8302 232.543 10.9508C232.543 8.11873 230.583 5.23941 226.617 5.23941H219.384V33.4661H214.717V0.424817H226.617C233.71 0.424817 237.256 5.71143 237.256 10.9508C237.256 15.6238 234.41 20.0608 228.81 21.052L239.123 33.4661H233.01L221.11 18.9752Z" fill="white"/>
<path d="M247.807 0.472018V33.4661L243.094 33.4661V0.472018H247.807Z" fill="white"/>
<path d="M251.817 0.472018H256.484V33.4661H251.817V0.472018ZM257.37 18.1727V15.7654L268.757 0.472018H274.683L262.224 16.8511L275.99 33.4661H269.83L257.37 18.1727Z" fill="white"/>
<path d="M290.289 7.5995L286.183 19.2584H294.302L290.289 7.5995ZM300.042 33.4661L296.122 23.7425H284.409C283.149 26.7635 281.516 30.7284 280.49 33.4661H275.403L288.516 0H291.969L305.082 33.4661H300.042Z" fill="white"/>
<path d="M150.578 48.9804L146.469 60.5576H154.595L150.578 48.9804ZM160.339 74.6659L156.416 65.0104H144.694C143.433 68.0101 141.798 71.9473 140.771 74.6659H135.68L148.804 41.4341H152.26L165.383 74.6659H160.339Z" fill="white"/>
<path d="M198.316 53.6206H193.273C191.965 48.3242 186.921 46.4024 182.764 46.4024C176.366 46.4024 171.416 51.4177 171.416 58.3078C171.416 65.2447 176.366 70.3537 182.764 70.3537C186.781 70.3537 191.077 68.4788 193.039 63.698H180.943V58.964H198.55C198.316 61.7294 198.083 63.5574 197.663 64.6354V64.5885C195.421 70.8693 188.696 74.9002 182.764 74.9002C173.611 74.9002 166.699 67.9633 166.699 58.3078C166.699 48.6054 173.751 41.6684 182.764 41.6684C189.023 41.6684 196.588 44.9026 198.316 53.6206Z" fill="white"/>
<path d="M207.594 60.6513V69.9319H222.772V74.6659H202.83V41.9028H222.726V46.6368H207.594V55.8705H222.399V60.6513H207.594Z" fill="white"/>
<path d="M231.45 74.6659H226.733V41.8091L230.376 41.8559L246.302 64.9635V41.8559H250.972V74.6659H247.236L231.45 51.7458V74.6659Z" fill="white"/>
<path d="M253.947 58.3546C253.947 53.7144 255.815 49.5897 258.618 46.5899C261.466 43.637 265.483 41.7153 269.92 41.7153C277.392 41.7153 283.277 46.4024 285.145 53.8081H280.475C278.747 48.8866 274.73 46.4024 269.92 46.4024C266.791 46.4024 263.942 47.7617 261.887 49.9178C259.832 52.0739 258.524 54.9799 258.524 58.3546C258.524 61.6356 259.832 64.5417 261.887 66.6977C263.942 68.8538 266.791 70.2131 269.92 70.2131C274.87 70.2131 279.073 67.3539 280.755 62.3856H285.378C283.51 69.8381 277.532 74.9002 269.92 74.9002C265.483 74.9002 261.466 73.0254 258.618 70.0256C255.815 67.0258 253.947 62.9012 253.947 58.3546Z" fill="white"/>
<path d="M285.998 41.9028H291.555L300.475 56.2923L309.396 41.9028H315L302.857 61.3075V74.6659H298.094V61.3075L285.998 41.9028Z" fill="white"/>
<path d="M57.5058 0H114.598L57.0921 55H0L57.5058 0Z" fill="white"/>
<path d="M78.1913 45H135.283L77.7776 100H20.6855L78.1913 45Z" fill="white"/>
<path d="M143.438 87.4655L143.071 88.8245H138.433L137.873 92.8477H141.898L141.723 94.2066H137.698L137.121 98.4265H142.073L141.881 99.7854H135.283L136.981 87.4655H143.438Z" fill="white"/>
<path d="M148.96 87.251C149.718 87.251 150.383 87.3761 150.955 87.6265C151.526 87.8768 152.045 88.2463 152.512 88.7351L151.48 89.7185C151.106 89.3371 150.716 89.0629 150.307 88.896C149.911 88.7291 149.461 88.6457 148.96 88.6457C148.248 88.6457 147.659 88.8245 147.192 89.1821C146.726 89.5397 146.492 90.0285 146.492 90.6483C146.492 91.1251 146.65 91.5066 146.965 91.7927C147.28 92.0788 147.875 92.3708 148.75 92.6689C149.753 92.9907 150.529 93.396 151.077 93.8847C151.626 94.3735 151.9 95.0947 151.9 96.0483C151.9 96.7159 151.725 97.3536 151.375 97.9616C151.036 98.5576 150.511 99.0463 149.8 99.4278C149.1 99.8093 148.225 100 147.175 100C145.518 100 144.217 99.4516 143.272 98.3549L144.322 97.3536C144.696 97.7708 145.116 98.0867 145.582 98.3013C146.049 98.504 146.592 98.6053 147.21 98.6053C148.108 98.6053 148.826 98.3847 149.362 97.9437C149.911 97.4907 150.185 96.8887 150.185 96.1377C150.185 95.6132 150.021 95.202 149.695 94.904C149.38 94.594 148.802 94.29 147.962 93.992C146.866 93.5987 146.067 93.1695 145.565 92.7046C145.063 92.2278 144.812 91.5722 144.812 90.7377C144.812 90.1775 144.976 89.6291 145.302 89.0927C145.629 88.5563 146.102 88.1152 146.72 87.7695C147.35 87.4238 148.096 87.251 148.96 87.251Z" fill="white"/>
<path d="M162.165 87.4655L161.78 88.9139H158.455L156.968 99.7854H155.323L156.81 88.9139H153.415L153.625 87.4655H162.165Z" fill="white"/>
<path d="M161.713 100C161.398 100 161.135 99.8927 160.925 99.6781C160.727 99.4636 160.628 99.1953 160.628 98.8735C160.628 98.492 160.75 98.1702 160.995 97.9079C161.252 97.6457 161.561 97.5146 161.923 97.5146C162.249 97.5146 162.512 97.6218 162.71 97.8364C162.92 98.051 163.025 98.3192 163.025 98.641C163.025 99.0225 162.897 99.3444 162.64 99.6066C162.384 99.8689 162.075 100 161.713 100Z" fill="white"/>
<path d="M173.84 87.6444C174.82 87.6444 175.596 87.9245 176.168 88.4848C176.751 89.0331 177.043 89.7543 177.043 90.6483C177.043 91.304 176.879 91.9477 176.553 92.5795C176.226 93.2112 175.631 93.9801 174.768 94.8861C173.916 95.792 172.662 96.9781 171.005 98.4444L176.203 98.4086L175.818 99.7854H168.976L169.15 98.4444C171.04 96.6682 172.4 95.345 173.228 94.4748C174.068 93.5927 174.634 92.8894 174.925 92.3649C175.229 91.8285 175.38 91.2742 175.38 90.702C175.38 90.1536 175.229 89.7364 174.925 89.4503C174.634 89.1523 174.231 89.0033 173.718 89.0033C173.228 89.0033 172.785 89.1106 172.388 89.3251C171.991 89.5397 171.571 89.8795 171.128 90.3444L170.113 89.3967C170.673 88.8006 171.256 88.3596 171.863 88.0735C172.481 87.7874 173.14 87.6444 173.84 87.6444Z" fill="white"/>
<path d="M180.53 88.9139C181.253 88.0675 182.192 87.6444 183.347 87.6444C184.385 87.6444 185.173 88.0139 185.709 88.753C186.258 89.492 186.532 90.5589 186.532 91.9536C186.532 93.1814 186.374 94.4093 186.059 95.6371C185.744 96.8649 185.225 97.902 184.502 98.7483C183.779 99.5828 182.84 100 181.685 100C180.646 100 179.853 99.6304 179.305 98.8914C178.768 98.1523 178.5 97.0854 178.5 95.6907C178.5 94.451 178.657 93.2232 178.972 92.0073C179.287 90.7795 179.806 89.7483 180.53 88.9139ZM184.502 89.5934C184.234 89.1642 183.831 88.9497 183.295 88.9497C182.571 88.9497 181.97 89.3132 181.492 90.0404C181.025 90.7675 180.681 91.6735 180.46 92.7583C180.238 93.8311 180.127 94.9099 180.127 95.9947C180.127 96.9364 180.261 97.6218 180.53 98.051C180.81 98.4801 181.218 98.6947 181.755 98.6947C182.478 98.6947 183.073 98.3311 183.54 97.604C184.018 96.8768 184.368 95.9768 184.589 94.904C184.811 93.8192 184.922 92.7344 184.922 91.6497C184.922 90.7079 184.782 90.0225 184.502 89.5934Z" fill="white"/>
<path d="M193.311 87.8232L191.666 99.7854H190.056L191.456 89.7364L188.533 91.4351L187.991 90.1119L191.893 87.8232H193.311Z" fill="white"/>
<path d="M200.761 93.402C202.103 94.0338 202.774 94.9576 202.774 96.1735C202.774 96.9006 202.575 97.5563 202.179 98.1404C201.794 98.7245 201.263 99.1834 200.586 99.5172C199.909 99.8391 199.157 100 198.329 100C197.232 100 196.357 99.7139 195.704 99.1417C195.062 98.5695 194.741 97.8185 194.741 96.8887C194.741 96.1616 194.945 95.5119 195.354 94.9397C195.762 94.3675 196.468 93.8728 197.471 93.4556C196.515 92.8953 196.036 92.0669 196.036 90.9702C196.036 90.3265 196.2 89.7543 196.526 89.2536C196.865 88.753 197.32 88.3596 197.891 88.0735C198.474 87.7874 199.122 87.6444 199.834 87.6444C200.417 87.6444 200.959 87.7516 201.461 87.9662C201.963 88.1689 202.365 88.4788 202.669 88.896C202.972 89.3132 203.123 89.8139 203.123 90.398C203.123 91.0894 202.937 91.6675 202.564 92.1324C202.19 92.5973 201.589 93.0205 200.761 93.402ZM199.781 88.8781C199.023 88.8781 198.463 89.0867 198.101 89.504C197.751 89.9093 197.576 90.392 197.576 90.9523C197.576 91.4649 197.722 91.8583 198.014 92.1324C198.317 92.4066 198.789 92.6569 199.431 92.8834L199.676 92.9549C200.411 92.5616 200.907 92.1622 201.164 91.7569C201.432 91.3516 201.566 90.9046 201.566 90.4159C201.566 89.9271 201.414 89.5516 201.111 89.2894C200.819 89.0152 200.376 88.8781 199.781 88.8781ZM198.399 98.6947C199.215 98.6947 199.874 98.4563 200.376 97.9795C200.889 97.4907 201.146 96.8649 201.146 96.102C201.146 95.6371 200.983 95.2616 200.656 94.9755C200.329 94.6775 199.758 94.3735 198.941 94.0636L198.556 93.9384C197.11 94.5821 196.386 95.5596 196.386 96.8708C196.386 97.443 196.561 97.89 196.911 98.2119C197.273 98.5338 197.769 98.6947 198.399 98.6947Z" fill="white"/>
</svg>
