<svg width="63" height="63" viewBox="0 0 63 63" fill="none" xmlns="http://www.w3.org/2000/svg">
<path d="M31.5 0.25C14.25 0.25 0.25 14.25 0.25 31.5C0.25 48.75 14.25 62.75 31.5 62.75C48.75 62.75 62.75 48.75 62.75 31.5C62.75 14.25 48.75 0.25 31.5 0.25ZM46 21.5C45.5312 26.4375 43.5 38.4375 42.4687 43.9687C42.0312 46.3125 41.1562 47.0937 40.3437 47.1875C38.5312 47.3437 37.1562 46 35.4062 44.8437C32.6562 43.0312 31.0938 41.9062 28.4375 40.1562C25.3438 38.125 27.3437 37 29.125 35.1875C29.5937 34.7188 37.5937 27.4375 37.75 26.7812C37.7717 26.6819 37.7688 26.5787 37.7416 26.4806C37.7144 26.3826 37.6636 26.2927 37.5937 26.2188C37.4062 26.0625 37.1562 26.125 36.9375 26.1562C36.6562 26.2187 32.2812 29.125 23.75 34.875C22.5 35.7187 21.375 36.1562 20.375 36.125C19.25 36.0937 17.125 35.5 15.5312 34.9687C13.5625 34.3437 12.0312 34 12.1562 32.9062C12.2187 32.3437 13 31.7812 14.4687 31.1875C23.5938 27.2187 29.6562 24.5938 32.6875 23.3438C41.375 19.7188 43.1562 19.0937 44.3438 19.0937C44.5938 19.0937 45.1875 19.1562 45.5625 19.4687C45.875 19.7187 45.9687 20.0625 46 20.3125C45.9687 20.5 46.0312 21.0625 46 21.5Z" fill="white" fill-opacity="0.5"/>
</svg>
